<?xml version="1.0" encoding="UTF-8" standalone="no"?>
<!-- Creator: CorelDRAW -->

<svg
   xmlns:dc="http://purl.org/dc/elements/1.1/"
   xmlns:cc="http://creativecommons.org/ns#"
   xmlns:rdf="http://www.w3.org/1999/02/22-rdf-syntax-ns#"
   xmlns:svg="http://www.w3.org/2000/svg"
   xmlns="http://www.w3.org/2000/svg"
   xmlns:sodipodi="http://sodipodi.sourceforge.net/DTD/sodipodi-0.dtd"
   xmlns:inkscape="http://www.inkscape.org/namespaces/inkscape"
   xml:space="preserve"
   width="60"
   height="20"
   style="clip-rule:evenodd;fill-rule:evenodd;image-rendering:optimizeQuality;shape-rendering:geometricPrecision;text-rendering:geometricPrecision"
   viewBox="0 0 60 19.864867"
   id="svg2"
   version="1.1"
   inkscape:version="0.91 r13725"
   sodipodi:docname="beetsoft-logo-inline.svg"><metadata
     id="metadata361"><rdf:RDF><cc:Work
         rdf:about=""><dc:format>image/svg+xml</dc:format><dc:type
           rdf:resource="http://purl.org/dc/dcmitype/StillImage" /><dc:title></dc:title></cc:Work></rdf:RDF></metadata><sodipodi:namedview
     pagecolor="#ffffff"
     bordercolor="#666666"
     borderopacity="1"
     objecttolerance="10"
     gridtolerance="10"
     guidetolerance="10"
     inkscape:pageopacity="0"
     inkscape:pageshadow="2"
     inkscape:window-width="1920"
     inkscape:window-height="1027"
     id="namedview359"
     showgrid="false"
     width="300px"
     inkscape:zoom="15.733333"
     inkscape:cx="21"
     inkscape:cy="-0.5084746"
     inkscape:window-x="1272"
     inkscape:window-y="-8"
     inkscape:window-maximized="1"
     inkscape:current-layer="svg2" /><defs
     id="defs4"><style
       type="text/css"
       id="style6"><![CDATA[
    .fil1 {fill:white}
    .fil0 {fill:#37B398;fill-rule:nonzero}
   ]]></style></defs><g
     id="Layer_x0020_1"
     transform="matrix(1.6278181,0,0,1.5846364,-4.6849554,-18.76653)"><metadata
       id="CorelCorpID_0Corel-Layer" /><g
       id="_342902384"><g
         id="g11"><path
           id="_344978928"
           class="fil0"
           d="m 5.35923,16.7049 c 0,0 -0.925901,-0.992023 -0.507036,-1.76357 0,-0.02756 0.011011,0 0.088172,0.08817 0.077161,0.08817 -0.165332,-0.490492 0.859751,-1.47698 0.0441,0.01101 0.154322,0.154293 0.154322,0.154293 0,0 1.13531,-1.16837 2.29266,-1.21244 0.595208,0.611724 -0.0441,2.07219 -0.132272,2.13831 -0.0882,0.06615 0.121232,-0.02202 0.264515,-0.04407 -0.077161,0.766046 -0.975478,1.3833 -0.991995,1.38881 -0.016545,0.0055 0.154293,0.02205 0.154293,0.02205 -0.016516,0.0055 -0.68338,0.876296 -1.96747,0.782591 -0.055111,0.02756 1.01589,-0.885462 1.08936,-1.57253 -0.345365,0.826691 -1.3043,1.49537 -1.3043,1.49537 z"
           inkscape:connector-curvature="0"
           style="fill:#37b398;fill-rule:nonzero" /><path
           id="_344977464"
           class="fil0"
           d="m 8.38669,21.6576 c 0,0.36523 -0.296072,0.66133 -0.66133,0.66133 l -4.05624,0 c -0.365258,0 -0.66133,-0.2961 -0.66133,-0.66133 l 0,-4.05624 c 0,-0.365258 0.296072,-0.661358 0.66133,-0.661358 l 4.05624,0 c 0.365258,0 0.66133,0.2961 0.66133,0.661358 l 0,4.05624 z"
           inkscape:connector-curvature="0"
           style="fill:#37b398;fill-rule:nonzero" /><path
           id="_344977680"
           class="fil0"
           d="m 4.3149,21.6599 1.07194,-0.594726 0.00111,1.26389 c 0,0 0.00468,1.0796 0.00111,1.17569 -0.00366,0.09859 -0.086668,0.09518 -0.168312,0.04089 -0.081645,-0.05426 -0.926781,-0.621855 -0.926781,-0.621855 l -0.9849,-0.713291 1.00584,-0.550597 z"
           inkscape:connector-curvature="0"
           style="fill:#37b398;fill-rule:nonzero" /></g><g
         id="g16"><polygon
           id="_344977968"
           class="fil1"
           points="3.56736,17.3373 3.38313,17.3373 3.38313,17.5216 3.56736,17.5216 "
           style="fill:#ffffff" /><polygon
           id="_344978160"
           class="fil1"
           points="3.75162,17.3373 3.56736,17.3373 3.56736,17.5216 3.75162,17.5216 "
           style="fill:#ffffff" /><polygon
           id="_344977896"
           class="fil1"
           points="3.93585,17.3373 3.75159,17.3373 3.75159,17.5216 3.93585,17.5216 "
           style="fill:#ffffff" /><polygon
           id="_344977272"
           class="fil1"
           points="4.12011,17.3373 3.93585,17.3373 3.93585,17.5216 4.12011,17.5216 "
           style="fill:#ffffff" /><polygon
           id="_344977368"
           class="fil1"
           points="4.30435,17.3373 4.12009,17.3373 4.12009,17.5216 4.30435,17.5216 "
           style="fill:#ffffff" /><polygon
           id="_344977224"
           class="fil1"
           points="4.48852,17.3373 4.30426,17.3373 4.30426,17.5216 4.48852,17.5216 "
           style="fill:#ffffff" /><polygon
           id="_344976792"
           class="fil1"
           points="4.67276,17.3373 4.48852,17.3373 4.48852,17.5216 4.67276,17.5216 "
           style="fill:#ffffff" /><polygon
           id="_344977032"
           class="fil1"
           points="5.22551,17.3373 5.04125,17.3373 5.04125,17.5216 5.22551,17.5216 "
           style="fill:#ffffff" /><polygon
           id="_344976696"
           class="fil1"
           points="6.14664,17.3373 5.96241,17.3373 5.96241,17.5216 6.14664,17.5216 "
           style="fill:#ffffff" /><polygon
           id="_344976144"
           class="fil1"
           points="6.88357,17.3373 6.69931,17.3373 6.69931,17.5216 6.88357,17.5216 "
           style="fill:#ffffff" /><polygon
           id="_344975904"
           class="fil1"
           points="7.06781,17.3373 6.88354,17.3373 6.88354,17.5216 7.06781,17.5216 "
           style="fill:#ffffff" /><polygon
           id="_344976552"
           class="fil1"
           points="7.25207,17.3373 7.06781,17.3373 7.06781,17.5216 7.25207,17.5216 "
           style="fill:#ffffff" /><polygon
           id="_344976456"
           class="fil1"
           points="7.4363,17.3373 7.25204,17.3373 7.25204,17.5216 7.4363,17.5216 "
           style="fill:#ffffff" /><polygon
           id="_344976528"
           class="fil1"
           points="7.62056,17.3373 7.4363,17.3373 7.4363,17.5216 7.62056,17.5216 "
           style="fill:#ffffff" /><polygon
           id="_344975232"
           class="fil1"
           points="7.80474,17.3373 7.62047,17.3373 7.62047,17.5216 7.80474,17.5216 "
           style="fill:#ffffff" /><polygon
           id="_344975136"
           class="fil1"
           points="7.98897,17.3373 7.80471,17.3373 7.80471,17.5216 7.98897,17.5216 "
           style="fill:#ffffff" /><polygon
           id="_344975616"
           class="fil1"
           points="3.56736,17.5216 3.38313,17.5216 3.38313,17.7058 3.56736,17.7058 "
           style="fill:#ffffff" /><polygon
           id="_344975856"
           class="fil1"
           points="4.67276,17.5216 4.48852,17.5216 4.48852,17.7058 4.67276,17.7058 "
           style="fill:#ffffff" /><polygon
           id="_344975736"
           class="fil1"
           points="5.04125,17.5216 4.85702,17.5216 4.85702,17.7058 5.04125,17.7058 "
           style="fill:#ffffff" /><polygon
           id="_344974464"
           class="fil1"
           points="5.22551,17.5216 5.04125,17.5216 5.04125,17.7058 5.22551,17.7058 "
           style="fill:#ffffff" /><polygon
           id="_344974968"
           class="fil1"
           points="5.59392,17.5216 5.40966,17.5216 5.40966,17.7058 5.59392,17.7058 "
           style="fill:#ffffff" /><polygon
           id="_344975088"
           class="fil1"
           points="5.77818,17.5216 5.59392,17.5216 5.59392,17.7058 5.77818,17.7058 "
           style="fill:#ffffff" /><polygon
           id="_344974800"
           class="fil1"
           points="5.96241,17.5216 5.77815,17.5216 5.77815,17.7058 5.96241,17.7058 "
           style="fill:#ffffff" /><polygon
           id="_344974416"
           class="fil1"
           points="6.3309,17.5216 6.14664,17.5216 6.14664,17.7058 6.3309,17.7058 "
           style="fill:#ffffff" /><polygon
           id="_344974608"
           class="fil1"
           points="6.88357,17.5216 6.69931,17.5216 6.69931,17.7058 6.88357,17.7058 "
           style="fill:#ffffff" /><polygon
           id="_344974176"
           class="fil1"
           points="7.98897,17.5216 7.80471,17.5216 7.80471,17.7058 7.98897,17.7058 "
           style="fill:#ffffff" /><polygon
           id="_344973672"
           class="fil1"
           points="3.56736,17.7058 3.38313,17.7058 3.38313,17.8901 3.56736,17.8901 "
           style="fill:#ffffff" /><polygon
           id="_344974008"
           class="fil1"
           points="3.93585,17.7058 3.75159,17.7058 3.75159,17.8901 3.93585,17.8901 "
           style="fill:#ffffff" /><polygon
           id="_344973912"
           class="fil1"
           points="4.12011,17.7058 3.93585,17.7058 3.93585,17.8901 4.12011,17.8901 "
           style="fill:#ffffff" /><polygon
           id="_344973864"
           class="fil1"
           points="4.30435,17.7058 4.12009,17.7058 4.12009,17.8901 4.30435,17.8901 "
           style="fill:#ffffff" /><polygon
           id="_345005880"
           class="fil1"
           points="4.67276,17.7058 4.48852,17.7058 4.48852,17.8901 4.67276,17.8901 "
           style="fill:#ffffff" /><polygon
           id="_345006120"
           class="fil1"
           points="5.22551,17.7058 5.04125,17.7058 5.04125,17.8901 5.22551,17.8901 "
           style="fill:#ffffff" /><polygon
           id="_345005592"
           class="fil1"
           points="5.40974,17.7058 5.22548,17.7058 5.22548,17.8901 5.40974,17.8901 "
           style="fill:#ffffff" /><polygon
           id="_345005448"
           class="fil1"
           points="5.59392,17.7058 5.40966,17.7058 5.40966,17.8901 5.59392,17.8901 "
           style="fill:#ffffff" /><polygon
           id="_345005136"
           class="fil1"
           points="6.14664,17.7058 5.96241,17.7058 5.96241,17.8901 6.14664,17.8901 "
           style="fill:#ffffff" /><polygon
           id="_345005688"
           class="fil1"
           points="6.3309,17.7058 6.14664,17.7058 6.14664,17.8901 6.3309,17.8901 "
           style="fill:#ffffff" /><polygon
           id="_345005208"
           class="fil1"
           points="6.88357,17.7058 6.69931,17.7058 6.69931,17.8901 6.88357,17.8901 "
           style="fill:#ffffff" /><polygon
           id="_345004416"
           class="fil1"
           points="7.25207,17.7058 7.06781,17.7058 7.06781,17.8901 7.25207,17.8901 "
           style="fill:#ffffff" /><polygon
           id="_345004752"
           class="fil1"
           points="7.4363,17.7058 7.25204,17.7058 7.25204,17.8901 7.4363,17.8901 "
           style="fill:#ffffff" /><polygon
           id="_345004872"
           class="fil1"
           points="7.62056,17.7058 7.4363,17.7058 7.4363,17.8901 7.62056,17.8901 "
           style="fill:#ffffff" /><polygon
           id="_345004344"
           class="fil1"
           points="7.98897,17.7058 7.80471,17.7058 7.80471,17.8901 7.98897,17.8901 "
           style="fill:#ffffff" /><polygon
           id="_345004896"
           class="fil1"
           points="3.56736,17.8901 3.38313,17.8901 3.38313,18.0743 3.56736,18.0743 "
           style="fill:#ffffff" /><polygon
           id="_345004392"
           class="fil1"
           points="3.93585,17.8901 3.75159,17.8901 3.75159,18.0743 3.93585,18.0743 "
           style="fill:#ffffff" /><polygon
           id="_345004296"
           class="fil1"
           points="4.12011,17.8901 3.93585,17.8901 3.93585,18.0743 4.12011,18.0743 "
           style="fill:#ffffff" /><polygon
           id="_345004056"
           class="fil1"
           points="4.30435,17.8901 4.12009,17.8901 4.12009,18.0743 4.30435,18.0743 "
           style="fill:#ffffff" /><polygon
           id="_345003840"
           class="fil1"
           points="4.67276,17.8901 4.48852,17.8901 4.48852,18.0743 4.67276,18.0743 "
           style="fill:#ffffff" /><polygon
           id="_345003960"
           class="fil1"
           points="5.04125,17.8901 4.85702,17.8901 4.85702,18.0743 5.04125,18.0743 "
           style="fill:#ffffff" /><polygon
           id="_345004224"
           class="fil1"
           points="5.22551,17.8901 5.04125,17.8901 5.04125,18.0743 5.22551,18.0743 "
           style="fill:#ffffff" /><polygon
           id="_345003072"
           class="fil1"
           points="5.59392,17.8901 5.40966,17.8901 5.40966,18.0743 5.59392,18.0743 "
           style="fill:#ffffff" /><polygon
           id="_345002976"
           class="fil1"
           points="6.3309,17.8901 6.14664,17.8901 6.14664,18.0743 6.3309,18.0743 "
           style="fill:#ffffff" /><polygon
           id="_345003480"
           class="fil1"
           points="6.51514,17.8901 6.3309,17.8901 6.3309,18.0743 6.51514,18.0743 "
           style="fill:#ffffff" /><polygon
           id="_345002952"
           class="fil1"
           points="6.88357,17.8901 6.69931,17.8901 6.69931,18.0743 6.88357,18.0743 "
           style="fill:#ffffff" /><polygon
           id="_345003528"
           class="fil1"
           points="7.25207,17.8901 7.06781,17.8901 7.06781,18.0743 7.25207,18.0743 "
           style="fill:#ffffff" /><polygon
           id="_345002400"
           class="fil1"
           points="7.4363,17.8901 7.25204,17.8901 7.25204,18.0743 7.4363,18.0743 "
           style="fill:#ffffff" /><polygon
           id="_345002064"
           class="fil1"
           points="7.62056,17.8901 7.4363,17.8901 7.4363,18.0743 7.62056,18.0743 "
           style="fill:#ffffff" /><polygon
           id="_345002520"
           class="fil1"
           points="7.98897,17.8901 7.80471,17.8901 7.80471,18.0743 7.98897,18.0743 "
           style="fill:#ffffff" /><polygon
           id="_345002208"
           class="fil1"
           points="3.56736,18.0743 3.38313,18.0743 3.38313,18.2586 3.56736,18.2586 "
           style="fill:#ffffff" /><polygon
           id="_345002280"
           class="fil1"
           points="3.93585,18.0743 3.75159,18.0743 3.75159,18.2586 3.93585,18.2586 "
           style="fill:#ffffff" /><polygon
           id="_345002112"
           class="fil1"
           points="4.12011,18.0743 3.93585,18.0743 3.93585,18.2586 4.12011,18.2586 "
           style="fill:#ffffff" /><polygon
           id="_345001464"
           class="fil1"
           points="4.30435,18.0743 4.12009,18.0743 4.12009,18.2586 4.30435,18.2586 "
           style="fill:#ffffff" /><polygon
           id="_345001248"
           class="fil1"
           points="4.67276,18.0743 4.48852,18.0743 4.48852,18.2586 4.67276,18.2586 "
           style="fill:#ffffff" /><polygon
           id="_345001728"
           class="fil1"
           points="5.40974,18.0743 5.22548,18.0743 5.22548,18.2586 5.40974,18.2586 "
           style="fill:#ffffff" /><polygon
           id="_345001416"
           class="fil1"
           points="5.77818,18.0743 5.59392,18.0743 5.59392,18.2586 5.77818,18.2586 "
           style="fill:#ffffff" /><polygon
           id="_345001920"
           class="fil1"
           points="5.96241,18.0743 5.77815,18.0743 5.77815,18.2586 5.96241,18.2586 "
           style="fill:#ffffff" /><polygon
           id="_345000648"
           class="fil1"
           points="6.88357,18.0743 6.69931,18.0743 6.69931,18.2586 6.88357,18.2586 "
           style="fill:#ffffff" /><polygon
           id="_345001128"
           class="fil1"
           points="7.25207,18.0743 7.06781,18.0743 7.06781,18.2586 7.25207,18.2586 "
           style="fill:#ffffff" /><polygon
           id="_345000864"
           class="fil1"
           points="7.4363,18.0743 7.25204,18.0743 7.25204,18.2586 7.4363,18.2586 "
           style="fill:#ffffff" /><polygon
           id="_345000696"
           class="fil1"
           points="7.62056,18.0743 7.4363,18.0743 7.4363,18.2586 7.62056,18.2586 "
           style="fill:#ffffff" /><polygon
           id="_345001152"
           class="fil1"
           points="7.98897,18.0743 7.80471,18.0743 7.80471,18.2586 7.98897,18.2586 "
           style="fill:#ffffff" /><polygon
           id="_344999976"
           class="fil1"
           points="3.56736,18.2585 3.38313,18.2585 3.38313,18.4427 3.56736,18.4427 "
           style="fill:#ffffff" /><polygon
           id="_344999808"
           class="fil1"
           points="4.67276,18.2585 4.48852,18.2585 4.48852,18.4427 4.67276,18.4427 "
           style="fill:#ffffff" /><polygon
           id="_344999736"
           class="fil1"
           points="5.04125,18.2585 4.85702,18.2585 4.85702,18.4427 5.04125,18.4427 "
           style="fill:#ffffff" /><polygon
           id="_345000384"
           class="fil1"
           points="5.40974,18.2585 5.22548,18.2585 5.22548,18.4427 5.40974,18.4427 "
           style="fill:#ffffff" /><polygon
           id="_345000168"
           class="fil1"
           points="5.96241,18.2585 5.77815,18.2585 5.77815,18.4427 5.96241,18.4427 "
           style="fill:#ffffff" /><polygon
           id="_345000144"
           class="fil1"
           points="6.14664,18.2585 5.96241,18.2585 5.96241,18.4427 6.14664,18.4427 "
           style="fill:#ffffff" /><polygon
           id="_344999112"
           class="fil1"
           points="6.3309,18.2585 6.14664,18.2585 6.14664,18.4427 6.3309,18.4427 "
           style="fill:#ffffff" /><polygon
           id="_344999016"
           class="fil1"
           points="6.88357,18.2585 6.69931,18.2585 6.69931,18.4427 6.88357,18.4427 "
           style="fill:#ffffff" /><polygon
           id="_344999568"
           class="fil1"
           points="7.98897,18.2585 7.80471,18.2585 7.80471,18.4427 7.98897,18.4427 "
           style="fill:#ffffff" /><polygon
           id="_344999040"
           class="fil1"
           points="3.56736,18.4427 3.38313,18.4427 3.38313,18.627 3.56736,18.627 "
           style="fill:#ffffff" /><polygon
           id="_344999592"
           class="fil1"
           points="3.75162,18.4427 3.56736,18.4427 3.56736,18.627 3.75162,18.627 "
           style="fill:#ffffff" /><polygon
           id="_344755088"
           class="fil1"
           points="3.93585,18.4427 3.75159,18.4427 3.75159,18.627 3.93585,18.627 "
           style="fill:#ffffff" /><polygon
           id="_344755064"
           class="fil1"
           points="4.12011,18.4427 3.93585,18.4427 3.93585,18.627 4.12011,18.627 "
           style="fill:#ffffff" /><polygon
           id="_344754680"
           class="fil1"
           points="4.30435,18.4427 4.12009,18.4427 4.12009,18.627 4.30435,18.627 "
           style="fill:#ffffff" /><polygon
           id="_344754848"
           class="fil1"
           points="4.48852,18.4427 4.30426,18.4427 4.30426,18.627 4.48852,18.627 "
           style="fill:#ffffff" /><polygon
           id="_344755160"
           class="fil1"
           points="4.67276,18.4427 4.48852,18.4427 4.48852,18.627 4.67276,18.627 "
           style="fill:#ffffff" /><polygon
           id="_344754632"
           class="fil1"
           points="5.04125,18.4427 4.85702,18.4427 4.85702,18.627 5.04125,18.627 "
           style="fill:#ffffff" /><polygon
           id="_344754512"
           class="fil1"
           points="5.40974,18.4427 5.22548,18.4427 5.22548,18.627 5.40974,18.627 "
           style="fill:#ffffff" /><polygon
           id="_344753816"
           class="fil1"
           points="5.77818,18.4427 5.59392,18.4427 5.59392,18.627 5.77818,18.627 "
           style="fill:#ffffff" /><polygon
           id="_344754104"
           class="fil1"
           points="6.14664,18.4427 5.96241,18.4427 5.96241,18.627 6.14664,18.627 "
           style="fill:#ffffff" /><polygon
           id="_344754368"
           class="fil1"
           points="6.51514,18.4427 6.3309,18.4427 6.3309,18.627 6.51514,18.627 "
           style="fill:#ffffff" /><polygon
           id="_344754320"
           class="fil1"
           points="6.88357,18.4427 6.69931,18.4427 6.69931,18.627 6.88357,18.627 "
           style="fill:#ffffff" /><polygon
           id="_344753360"
           class="fil1"
           points="7.06781,18.4427 6.88354,18.4427 6.88354,18.627 7.06781,18.627 "
           style="fill:#ffffff" /><polygon
           id="_344753168"
           class="fil1"
           points="7.25207,18.4427 7.06781,18.4427 7.06781,18.627 7.25207,18.627 "
           style="fill:#ffffff" /><polygon
           id="_344753744"
           class="fil1"
           points="7.4363,18.4427 7.25204,18.4427 7.25204,18.627 7.4363,18.627 "
           style="fill:#ffffff" /><polygon
           id="_344753216"
           class="fil1"
           points="7.62056,18.4427 7.4363,18.4427 7.4363,18.627 7.62056,18.627 "
           style="fill:#ffffff" /><polygon
           id="_344753792"
           class="fil1"
           points="7.80474,18.4427 7.62047,18.4427 7.62047,18.627 7.80474,18.627 "
           style="fill:#ffffff" /><polygon
           id="_344752736"
           class="fil1"
           points="7.98897,18.4427 7.80471,18.4427 7.80471,18.627 7.98897,18.627 "
           style="fill:#ffffff" /><polygon
           id="_344752520"
           class="fil1"
           points="5.77818,18.627 5.59392,18.627 5.59392,18.8112 5.77818,18.8112 "
           style="fill:#ffffff" /><polygon
           id="_344752688"
           class="fil1"
           points="5.96241,18.627 5.77815,18.627 5.77815,18.8112 5.96241,18.8112 "
           style="fill:#ffffff" /><polygon
           id="_344752496"
           class="fil1"
           points="3.56736,18.8112 3.38313,18.8112 3.38313,18.9955 3.56736,18.9955 "
           style="fill:#ffffff" /><polygon
           id="_344753000"
           class="fil1"
           points="3.75162,18.8112 3.56736,18.8112 3.56736,18.9955 3.75162,18.9955 "
           style="fill:#ffffff" /><polygon
           id="_344752976"
           class="fil1"
           points="3.93585,18.8112 3.75159,18.8112 3.75159,18.9955 3.93585,18.9955 "
           style="fill:#ffffff" /><polygon
           id="_344768216"
           class="fil1"
           points="4.12011,18.8112 3.93585,18.8112 3.93585,18.9955 4.12011,18.9955 "
           style="fill:#ffffff" /><polygon
           id="_344767664"
           class="fil1"
           points="4.30435,18.8112 4.12009,18.8112 4.12009,18.9955 4.30435,18.9955 "
           style="fill:#ffffff" /><polygon
           id="_344768096"
           class="fil1"
           points="4.67276,18.8112 4.48852,18.8112 4.48852,18.9955 4.67276,18.9955 "
           style="fill:#ffffff" /><polygon
           id="_344767856"
           class="fil1"
           points="4.85702,18.8112 4.67276,18.8112 4.67276,18.9955 4.85702,18.9955 "
           style="fill:#ffffff" /><polygon
           id="_344768312"
           class="fil1"
           points="5.04125,18.8112 4.85702,18.8112 4.85702,18.9955 5.04125,18.9955 "
           style="fill:#ffffff" /><polygon
           id="_344768072"
           class="fil1"
           points="5.22551,18.8112 5.04125,18.8112 5.04125,18.9955 5.22551,18.9955 "
           style="fill:#ffffff" /><polygon
           id="_344767136"
           class="fil1"
           points="5.40974,18.8112 5.22548,18.8112 5.22548,18.9955 5.40974,18.9955 "
           style="fill:#ffffff" /><polygon
           id="_344767232"
           class="fil1"
           points="5.77818,18.8112 5.59392,18.8112 5.59392,18.9955 5.77818,18.9955 "
           style="fill:#ffffff" /><polygon
           id="_344767568"
           class="fil1"
           points="6.14664,18.8112 5.96241,18.8112 5.96241,18.9955 6.14664,18.9955 "
           style="fill:#ffffff" /><polygon
           id="_344767520"
           class="fil1"
           points="6.3309,18.8112 6.14664,18.8112 6.14664,18.9955 6.3309,18.9955 "
           style="fill:#ffffff" /><polygon
           id="_344767280"
           class="fil1"
           points="6.69931,18.8112 6.51508,18.8112 6.51508,18.9955 6.69931,18.9955 "
           style="fill:#ffffff" /><polygon
           id="_344766752"
           class="fil1"
           points="7.06781,18.8112 6.88354,18.8112 6.88354,18.9955 7.06781,18.9955 "
           style="fill:#ffffff" /><polygon
           id="_344766344"
           class="fil1"
           points="7.4363,18.8112 7.25204,18.8112 7.25204,18.9955 7.4363,18.9955 "
           style="fill:#ffffff" /><polygon
           id="_344766560"
           class="fil1"
           points="7.80474,18.8112 7.62047,18.8112 7.62047,18.9955 7.80474,18.9955 "
           style="fill:#ffffff" /><polygon
           id="_344766512"
           class="fil1"
           points="4.12011,18.9955 3.93585,18.9955 3.93585,19.1797 4.12011,19.1797 "
           style="fill:#ffffff" /><polygon
           id="_344766608"
           class="fil1"
           points="4.85702,18.9955 4.67276,18.9955 4.67276,19.1797 4.85702,19.1797 "
           style="fill:#ffffff" /><polygon
           id="_344765768"
           class="fil1"
           points="5.22551,18.9955 5.04125,18.9955 5.04125,19.1797 5.22551,19.1797 "
           style="fill:#ffffff" /><polygon
           id="_344765696"
           class="fil1"
           points="6.51514,18.9955 6.3309,18.9955 6.3309,19.1797 6.51514,19.1797 "
           style="fill:#ffffff" /><polygon
           id="_344765888"
           class="fil1"
           points="6.69931,18.9955 6.51508,18.9955 6.51508,19.1797 6.69931,19.1797 "
           style="fill:#ffffff" /><polygon
           id="_344765864"
           class="fil1"
           points="7.06781,18.9955 6.88354,18.9955 6.88354,19.1797 7.06781,19.1797 "
           style="fill:#ffffff" /><polygon
           id="_344765816"
           class="fil1"
           points="7.80474,18.9955 7.62047,18.9955 7.62047,19.1797 7.80474,19.1797 "
           style="fill:#ffffff" /><polygon
           id="_344765384"
           class="fil1"
           points="3.56736,19.1797 3.38313,19.1797 3.38313,19.364 3.56736,19.364 "
           style="fill:#ffffff" /><polygon
           id="_344764808"
           class="fil1"
           points="3.75162,19.1797 3.56736,19.1797 3.56736,19.364 3.75162,19.364 "
           style="fill:#ffffff" /><polygon
           id="_344765048"
           class="fil1"
           points="4.12011,19.1797 3.93585,19.1797 3.93585,19.364 4.12011,19.364 "
           style="fill:#ffffff" /><polygon
           id="_344764616"
           class="fil1"
           points="4.48852,19.1797 4.30426,19.1797 4.30426,19.364 4.48852,19.364 "
           style="fill:#ffffff" /><polygon
           id="_344764976"
           class="fil1"
           points="4.67276,19.1797 4.48852,19.1797 4.48852,19.364 4.67276,19.364 "
           style="fill:#ffffff" /><polygon
           id="_344764928"
           class="fil1"
           points="5.04125,19.1797 4.85702,19.1797 4.85702,19.364 5.04125,19.364 "
           style="fill:#ffffff" /><polygon
           id="_344764448"
           class="fil1"
           points="5.22551,19.1797 5.04125,19.1797 5.04125,19.364 5.22551,19.364 "
           style="fill:#ffffff" /><polygon
           id="_344764208"
           class="fil1"
           points="5.59392,19.1797 5.40966,19.1797 5.40966,19.364 5.59392,19.364 "
           style="fill:#ffffff" /><polygon
           id="_344764160"
           class="fil1"
           points="5.77818,19.1797 5.59392,19.1797 5.59392,19.364 5.77818,19.364 "
           style="fill:#ffffff" /><polygon
           id="_344763896"
           class="fil1"
           points="6.3309,19.1797 6.14664,19.1797 6.14664,19.364 6.3309,19.364 "
           style="fill:#ffffff" /><polygon
           id="_344763824"
           class="fil1"
           points="6.51514,19.1797 6.3309,19.1797 6.3309,19.364 6.51514,19.364 "
           style="fill:#ffffff" /><polygon
           id="_344763512"
           class="fil1"
           points="6.88357,19.1797 6.69931,19.1797 6.69931,19.364 6.88357,19.364 "
           style="fill:#ffffff" /><polygon
           id="_344763320"
           class="fil1"
           points="7.06781,19.1797 6.88354,19.1797 6.88354,19.364 7.06781,19.364 "
           style="fill:#ffffff" /><polygon
           id="_344763536"
           class="fil1"
           points="7.4363,19.1797 7.25204,19.1797 7.25204,19.364 7.4363,19.364 "
           style="fill:#ffffff" /><polygon
           id="_344763728"
           class="fil1"
           points="7.80474,19.1797 7.62047,19.1797 7.62047,19.364 7.80474,19.364 "
           style="fill:#ffffff" /><polygon
           id="_344763080"
           class="fil1"
           points="7.98897,19.1797 7.80471,19.1797 7.80471,19.364 7.98897,19.364 "
           style="fill:#ffffff" /><polygon
           id="_344763632"
           class="fil1"
           points="3.56736,19.3639 3.38313,19.3639 3.38313,19.5481 3.56736,19.5481 "
           style="fill:#ffffff" /><polygon
           id="_344762336"
           class="fil1"
           points="3.75162,19.3639 3.56736,19.3639 3.56736,19.5481 3.75162,19.5481 "
           style="fill:#ffffff" /><polygon
           id="_344762384"
           class="fil1"
           points="3.93585,19.3639 3.75159,19.3639 3.75159,19.5481 3.93585,19.5481 "
           style="fill:#ffffff" /><polygon
           id="_344762288"
           class="fil1"
           points="4.12011,19.3639 3.93585,19.3639 3.93585,19.5481 4.12011,19.5481 "
           style="fill:#ffffff" /><polygon
           id="_344762864"
           class="fil1"
           points="4.48852,19.3639 4.30426,19.3639 4.30426,19.5481 4.48852,19.5481 "
           style="fill:#ffffff" /><polygon
           id="_344762600"
           class="fil1"
           points="4.85702,19.3639 4.67276,19.3639 4.67276,19.5481 4.85702,19.5481 "
           style="fill:#ffffff" /><polygon
           id="_344762144"
           class="fil1"
           points="5.22551,19.3639 5.04125,19.3639 5.04125,19.5481 5.22551,19.5481 "
           style="fill:#ffffff" /><polygon
           id="_344761952"
           class="fil1"
           points="5.40974,19.3639 5.22548,19.3639 5.22548,19.5481 5.40974,19.5481 "
           style="fill:#ffffff" /><polygon
           id="_344761784"
           class="fil1"
           points="5.59392,19.3639 5.40966,19.3639 5.40966,19.5481 5.59392,19.5481 "
           style="fill:#ffffff" /><polygon
           id="_344761856"
           class="fil1"
           points="6.14664,19.3639 5.96241,19.3639 5.96241,19.5481 6.14664,19.5481 "
           style="fill:#ffffff" /><polygon
           id="_344762168"
           class="fil1"
           points="7.06781,19.3639 6.88354,19.3639 6.88354,19.5481 7.06781,19.5481 "
           style="fill:#ffffff" /><polygon
           id="_344761232"
           class="fil1"
           points="7.25207,19.3639 7.06781,19.3639 7.06781,19.5481 7.25207,19.5481 "
           style="fill:#ffffff" /><polygon
           id="_344761208"
           class="fil1"
           points="7.98897,19.3639 7.80471,19.3639 7.80471,19.5481 7.98897,19.5481 "
           style="fill:#ffffff" /><polygon
           id="_344760896"
           class="fil1"
           points="3.56736,19.5481 3.38313,19.5481 3.38313,19.7324 3.56736,19.7324 "
           style="fill:#ffffff" /><polygon
           id="_344761448"
           class="fil1"
           points="3.75162,19.5481 3.56736,19.5481 3.56736,19.7324 3.75162,19.7324 "
           style="fill:#ffffff" /><polygon
           id="_344761328"
           class="fil1"
           points="4.48852,19.5481 4.30426,19.5481 4.30426,19.7324 4.48852,19.7324 "
           style="fill:#ffffff" /><polygon
           id="_344761136"
           class="fil1"
           points="4.67276,19.5481 4.48852,19.5481 4.48852,19.7324 4.67276,19.7324 "
           style="fill:#ffffff" /><polygon
           id="_344760560"
           class="fil1"
           points="5.22551,19.5481 5.04125,19.5481 5.04125,19.7324 5.22551,19.7324 "
           style="fill:#ffffff" /><polygon
           id="_344760128"
           class="fil1"
           points="5.59392,19.5481 5.40966,19.5481 5.40966,19.7324 5.59392,19.7324 "
           style="fill:#ffffff" /><polygon
           id="_344760416"
           class="fil1"
           points="6.3309,19.5481 6.14664,19.5481 6.14664,19.7324 6.3309,19.7324 "
           style="fill:#ffffff" /><polygon
           id="_344760344"
           class="fil1"
           points="6.51514,19.5481 6.3309,19.5481 6.3309,19.7324 6.51514,19.7324 "
           style="fill:#ffffff" /><polygon
           id="_344760584"
           class="fil1"
           points="6.88357,19.5481 6.69931,19.5481 6.69931,19.7324 6.88357,19.7324 "
           style="fill:#ffffff" /><polygon
           id="_344759264"
           class="fil1"
           points="7.25207,19.5481 7.06781,19.5481 7.06781,19.7324 7.25207,19.7324 "
           style="fill:#ffffff" /><polygon
           id="_344759912"
           class="fil1"
           points="7.62056,19.5481 7.4363,19.5481 7.4363,19.7324 7.62056,19.7324 "
           style="fill:#ffffff" /><polygon
           id="_344759744"
           class="fil1"
           points="7.80474,19.5481 7.62047,19.5481 7.62047,19.7324 7.80474,19.7324 "
           style="fill:#ffffff" /><polygon
           id="_344759720"
           class="fil1"
           points="7.98897,19.5481 7.80471,19.5481 7.80471,19.7324 7.98897,19.7324 "
           style="fill:#ffffff" /><polygon
           id="_344759696"
           class="fil1"
           points="3.56736,19.7324 3.38313,19.7324 3.38313,19.9166 3.56736,19.9166 "
           style="fill:#ffffff" /><polygon
           id="_344758736"
           class="fil1"
           points="3.75162,19.7324 3.56736,19.7324 3.56736,19.9166 3.75162,19.9166 "
           style="fill:#ffffff" /><polygon
           id="_344758568"
           class="fil1"
           points="4.12011,19.7324 3.93585,19.7324 3.93585,19.9166 4.12011,19.9166 "
           style="fill:#ffffff" /><polygon
           id="_344758880"
           class="fil1"
           points="4.30435,19.7324 4.12009,19.7324 4.12009,19.9166 4.30435,19.9166 "
           style="fill:#ffffff" /><polygon
           id="_344758472"
           class="fil1"
           points="4.48852,19.7324 4.30426,19.7324 4.30426,19.9166 4.48852,19.9166 "
           style="fill:#ffffff" /><polygon
           id="_344758544"
           class="fil1"
           points="4.85702,19.7324 4.67276,19.7324 4.67276,19.9166 4.85702,19.9166 "
           style="fill:#ffffff" /><polygon
           id="_344758952"
           class="fil1"
           points="5.04125,19.7324 4.85702,19.7324 4.85702,19.9166 5.04125,19.9166 "
           style="fill:#ffffff" /><polygon
           id="_344757824"
           class="fil1"
           points="5.40974,19.7324 5.22548,19.7324 5.22548,19.9166 5.40974,19.9166 "
           style="fill:#ffffff" /><polygon
           id="_344757728"
           class="fil1"
           points="5.77818,19.7324 5.59392,19.7324 5.59392,19.9166 5.77818,19.9166 "
           style="fill:#ffffff" /><polygon
           id="_344758328"
           class="fil1"
           points="5.96241,19.7324 5.77815,19.7324 5.77815,19.9166 5.96241,19.9166 "
           style="fill:#ffffff" /><polygon
           id="_344758136"
           class="fil1"
           points="6.14664,19.7324 5.96241,19.7324 5.96241,19.9166 6.14664,19.9166 "
           style="fill:#ffffff" /><polygon
           id="_344758160"
           class="fil1"
           points="7.4363,19.7324 7.25204,19.7324 7.25204,19.9166 7.4363,19.9166 "
           style="fill:#ffffff" /><polygon
           id="_344757536"
           class="fil1"
           points="7.80474,19.7324 7.62047,19.7324 7.62047,19.9166 7.80474,19.9166 "
           style="fill:#ffffff" /><polygon
           id="_344756936"
           class="fil1"
           points="3.56736,19.9166 3.38313,19.9166 3.38313,20.1009 3.56736,20.1009 "
           style="fill:#ffffff" /><polygon
           id="_344757488"
           class="fil1"
           points="4.12011,19.9166 3.93585,19.9166 3.93585,20.1009 4.12011,20.1009 "
           style="fill:#ffffff" /><polygon
           id="_344756912"
           class="fil1"
           points="4.30435,19.9166 4.12009,19.9166 4.12009,20.1009 4.30435,20.1009 "
           style="fill:#ffffff" /><polygon
           id="_344757464"
           class="fil1"
           points="4.67276,19.9166 4.48852,19.9166 4.48852,20.1009 4.67276,20.1009 "
           style="fill:#ffffff" /><polygon
           id="_344756600"
           class="fil1"
           points="4.85702,19.9166 4.67276,19.9166 4.67276,20.1009 4.85702,20.1009 "
           style="fill:#ffffff" /><polygon
           id="_344756840"
           class="fil1"
           points="5.04125,19.9166 4.85702,19.9166 4.85702,20.1009 5.04125,20.1009 "
           style="fill:#ffffff" /><polygon
           id="_344756216"
           class="fil1"
           points="5.22551,19.9166 5.04125,19.9166 5.04125,20.1009 5.22551,20.1009 "
           style="fill:#ffffff" /><polygon
           id="_344756408"
           class="fil1"
           points="5.96241,19.9166 5.77815,19.9166 5.77815,20.1009 5.96241,20.1009 "
           style="fill:#ffffff" /><polygon
           id="_344756864"
           class="fil1"
           points="6.14664,19.9166 5.96241,19.9166 5.96241,20.1009 6.14664,20.1009 "
           style="fill:#ffffff" /><polygon
           id="_344756624"
           class="fil1"
           points="6.3309,19.9166 6.14664,19.9166 6.14664,20.1009 6.3309,20.1009 "
           style="fill:#ffffff" /><polygon
           id="_344756000"
           class="fil1"
           points="6.51514,19.9166 6.3309,19.9166 6.3309,20.1009 6.51514,20.1009 "
           style="fill:#ffffff" /><polygon
           id="_344755448"
           class="fil1"
           points="6.69931,19.9166 6.51508,19.9166 6.51508,20.1009 6.69931,20.1009 "
           style="fill:#ffffff" /><polygon
           id="_344755712"
           class="fil1"
           points="7.06781,19.9166 6.88354,19.9166 6.88354,20.1009 7.06781,20.1009 "
           style="fill:#ffffff" /><polygon
           id="_344756048"
           class="fil1"
           points="7.4363,19.9166 7.25204,19.9166 7.25204,20.1009 7.4363,20.1009 "
           style="fill:#ffffff" /><polygon
           id="_344755496"
           class="fil1"
           points="7.80474,19.9166 7.62047,19.9166 7.62047,20.1009 7.80474,20.1009 "
           style="fill:#ffffff" /><polygon
           id="_344533784"
           class="fil1"
           points="7.98897,19.9166 7.80471,19.9166 7.80471,20.1009 7.98897,20.1009 "
           style="fill:#ffffff" /><polygon
           id="_344534072"
           class="fil1"
           points="3.56736,20.1009 3.38313,20.1009 3.38313,20.2851 3.56736,20.2851 "
           style="fill:#ffffff" /><polygon
           id="_344534024"
           class="fil1"
           points="3.93585,20.1009 3.75159,20.1009 3.75159,20.2851 3.93585,20.2851 "
           style="fill:#ffffff" /><polygon
           id="_344534240"
           class="fil1"
           points="4.30435,20.1009 4.12009,20.1009 4.12009,20.2851 4.30435,20.2851 "
           style="fill:#ffffff" /><polygon
           id="_344534000"
           class="fil1"
           points="4.48852,20.1009 4.30426,20.1009 4.30426,20.2851 4.48852,20.2851 "
           style="fill:#ffffff" /><polygon
           id="_344533832"
           class="fil1"
           points="5.04125,20.1009 4.85702,20.1009 4.85702,20.2851 5.04125,20.2851 "
           style="fill:#ffffff" /><polygon
           id="_344532848"
           class="fil1"
           points="5.22551,20.1009 5.04125,20.1009 5.04125,20.2851 5.22551,20.2851 "
           style="fill:#ffffff" /><polygon
           id="_344533280"
           class="fil1"
           points="5.40974,20.1009 5.22548,20.1009 5.22548,20.2851 5.40974,20.2851 "
           style="fill:#ffffff" /><polygon
           id="_344533448"
           class="fil1"
           points="5.77818,20.1009 5.59392,20.1009 5.59392,20.2851 5.77818,20.2851 "
           style="fill:#ffffff" /><polygon
           id="_344532992"
           class="fil1"
           points="5.96241,20.1009 5.77815,20.1009 5.77815,20.2851 5.96241,20.2851 "
           style="fill:#ffffff" /><polygon
           id="_344532968"
           class="fil1"
           points="6.51514,20.1009 6.3309,20.1009 6.3309,20.2851 6.51514,20.2851 "
           style="fill:#ffffff" /><polygon
           id="_344532512"
           class="fil1"
           points="7.4363,20.1009 7.25204,20.1009 7.25204,20.2851 7.4363,20.2851 "
           style="fill:#ffffff" /><polygon
           id="_344532176"
           class="fil1"
           points="7.98897,20.1009 7.80471,20.1009 7.80471,20.2851 7.98897,20.2851 "
           style="fill:#ffffff" /><polygon
           id="_344532080"
           class="fil1"
           points="3.56736,20.2851 3.38313,20.2851 3.38313,20.4694 3.56736,20.4694 "
           style="fill:#ffffff" /><polygon
           id="_344532392"
           class="fil1"
           points="4.12011,20.2851 3.93585,20.2851 3.93585,20.4694 4.12011,20.4694 "
           style="fill:#ffffff" /><polygon
           id="_344532296"
           class="fil1"
           points="4.67276,20.2851 4.48852,20.2851 4.48852,20.4694 4.67276,20.4694 "
           style="fill:#ffffff" /><polygon
           id="_344531984"
           class="fil1"
           points="4.85702,20.2851 4.67276,20.2851 4.67276,20.4694 4.85702,20.4694 "
           style="fill:#ffffff" /><polygon
           id="_344531576"
           class="fil1"
           points="5.04125,20.2851 4.85702,20.2851 4.85702,20.4694 5.04125,20.4694 "
           style="fill:#ffffff" /><polygon
           id="_344531432"
           class="fil1"
           points="5.22551,20.2851 5.04125,20.2851 5.04125,20.4694 5.22551,20.4694 "
           style="fill:#ffffff" /><polygon
           id="_344531624"
           class="fil1"
           points="5.40974,20.2851 5.22548,20.2851 5.22548,20.4694 5.40974,20.4694 "
           style="fill:#ffffff" /><polygon
           id="_344531528"
           class="fil1"
           points="5.77818,20.2851 5.59392,20.2851 5.59392,20.4694 5.77818,20.4694 "
           style="fill:#ffffff" /><polygon
           id="_344532008"
           class="fil1"
           points="6.14664,20.2851 5.96241,20.2851 5.96241,20.4694 6.14664,20.4694 "
           style="fill:#ffffff" /><polygon
           id="_344531048"
           class="fil1"
           points="6.51514,20.2851 6.3309,20.2851 6.3309,20.4694 6.51514,20.4694 "
           style="fill:#ffffff" /><polygon
           id="_344531144"
           class="fil1"
           points="6.69931,20.2851 6.51508,20.2851 6.51508,20.4694 6.69931,20.4694 "
           style="fill:#ffffff" /><polygon
           id="_344531096"
           class="fil1"
           points="6.88357,20.2851 6.69931,20.2851 6.69931,20.4694 6.88357,20.4694 "
           style="fill:#ffffff" /><polygon
           id="_344530880"
           class="fil1"
           points="7.06781,20.2851 6.88354,20.2851 6.88354,20.4694 7.06781,20.4694 "
           style="fill:#ffffff" /><polygon
           id="_344530808"
           class="fil1"
           points="7.25207,20.2851 7.06781,20.2851 7.06781,20.4694 7.25207,20.4694 "
           style="fill:#ffffff" /><polygon
           id="_344530472"
           class="fil1"
           points="7.62056,20.2851 7.4363,20.2851 7.4363,20.4694 7.62056,20.4694 "
           style="fill:#ffffff" /><polygon
           id="_344530328"
           class="fil1"
           points="5.04125,20.4693 4.85702,20.4693 4.85702,20.6535 5.04125,20.6535 "
           style="fill:#ffffff" /><polygon
           id="_344530232"
           class="fil1"
           points="5.40974,20.4693 5.22548,20.4693 5.22548,20.6535 5.40974,20.6535 "
           style="fill:#ffffff" /><polygon
           id="_344530184"
           class="fil1"
           points="6.3309,20.4693 6.14664,20.4693 6.14664,20.6535 6.3309,20.6535 "
           style="fill:#ffffff" /><polygon
           id="_344530448"
           class="fil1"
           points="6.51514,20.4693 6.3309,20.4693 6.3309,20.6535 6.51514,20.6535 "
           style="fill:#ffffff" /><polygon
           id="_344529368"
           class="fil1"
           points="7.25207,20.4693 7.06781,20.4693 7.06781,20.6535 7.25207,20.6535 "
           style="fill:#ffffff" /><polygon
           id="_344529704"
           class="fil1"
           points="7.4363,20.4693 7.25204,20.4693 7.25204,20.6535 7.4363,20.6535 "
           style="fill:#ffffff" /><polygon
           id="_344529344"
           class="fil1"
           points="7.62056,20.4693 7.4363,20.4693 7.4363,20.6535 7.62056,20.6535 "
           style="fill:#ffffff" /><polygon
           id="_344529632"
           class="fil1"
           points="3.56736,20.6535 3.38313,20.6535 3.38313,20.8378 3.56736,20.8378 "
           style="fill:#ffffff" /><polygon
           id="_344529608"
           class="fil1"
           points="3.75162,20.6535 3.56736,20.6535 3.56736,20.8378 3.75162,20.8378 "
           style="fill:#ffffff" /><polygon
           id="_344529008"
           class="fil1"
           points="3.93585,20.6535 3.75159,20.6535 3.75159,20.8378 3.93585,20.8378 "
           style="fill:#ffffff" /><polygon
           id="_344528696"
           class="fil1"
           points="4.12011,20.6535 3.93585,20.6535 3.93585,20.8378 4.12011,20.8378 "
           style="fill:#ffffff" /><polygon
           id="_344528264"
           class="fil1"
           points="4.30435,20.6535 4.12009,20.6535 4.12009,20.8378 4.30435,20.8378 "
           style="fill:#ffffff" /><polygon
           id="_344528600"
           class="fil1"
           points="4.48852,20.6535 4.30426,20.6535 4.30426,20.8378 4.48852,20.8378 "
           style="fill:#ffffff" /><polygon
           id="_344528960"
           class="fil1"
           points="4.67276,20.6535 4.48852,20.6535 4.48852,20.8378 4.67276,20.8378 "
           style="fill:#ffffff" /><polygon
           id="_344528384"
           class="fil1"
           points="5.04125,20.6535 4.85702,20.6535 4.85702,20.8378 5.04125,20.8378 "
           style="fill:#ffffff" /><polygon
           id="_344527952"
           class="fil1"
           points="5.22551,20.6535 5.04125,20.6535 5.04125,20.8378 5.22551,20.8378 "
           style="fill:#ffffff" /><polygon
           id="_344527736"
           class="fil1"
           points="5.59392,20.6535 5.40966,20.6535 5.40966,20.8378 5.59392,20.8378 "
           style="fill:#ffffff" /><polygon
           id="_344527496"
           class="fil1"
           points="5.77818,20.6535 5.59392,20.6535 5.59392,20.8378 5.77818,20.8378 "
           style="fill:#ffffff" /><polygon
           id="_344527544"
           class="fil1"
           points="6.51514,20.6535 6.3309,20.6535 6.3309,20.8378 6.51514,20.8378 "
           style="fill:#ffffff" /><polygon
           id="_344527664"
           class="fil1"
           points="6.88357,20.6535 6.69931,20.6535 6.69931,20.8378 6.88357,20.8378 "
           style="fill:#ffffff" /><polygon
           id="_344527376"
           class="fil1"
           points="7.25207,20.6535 7.06781,20.6535 7.06781,20.8378 7.25207,20.8378 "
           style="fill:#ffffff" /><polygon
           id="_344526944"
           class="fil1"
           points="7.4363,20.6535 7.25204,20.6535 7.25204,20.8378 7.4363,20.8378 "
           style="fill:#ffffff" /><polygon
           id="_344527328"
           class="fil1"
           points="7.62056,20.6535 7.4363,20.6535 7.4363,20.8378 7.62056,20.8378 "
           style="fill:#ffffff" /><polygon
           id="_344527160"
           class="fil1"
           points="7.80474,20.6535 7.62047,20.6535 7.62047,20.8378 7.80474,20.8378 "
           style="fill:#ffffff" /><polygon
           id="_344526968"
           class="fil1"
           points="7.98897,20.6535 7.80471,20.6535 7.80471,20.8378 7.98897,20.8378 "
           style="fill:#ffffff" /><polygon
           id="_344527184"
           class="fil1"
           points="3.56736,20.8378 3.38313,20.8378 3.38313,21.022 3.56736,21.022 "
           style="fill:#ffffff" /><polygon
           id="_344542088"
           class="fil1"
           points="4.67276,20.8378 4.48852,20.8378 4.48852,21.022 4.67276,21.022 "
           style="fill:#ffffff" /><polygon
           id="_344542568"
           class="fil1"
           points="5.59392,20.8378 5.40966,20.8378 5.40966,21.022 5.59392,21.022 "
           style="fill:#ffffff" /><polygon
           id="_344542496"
           class="fil1"
           points="6.14664,20.8378 5.96241,20.8378 5.96241,21.022 6.14664,21.022 "
           style="fill:#ffffff" /><polygon
           id="_344542712"
           class="fil1"
           points="6.3309,20.8378 6.14664,20.8378 6.14664,21.022 6.3309,21.022 "
           style="fill:#ffffff" /><polygon
           id="_344542160"
           class="fil1"
           points="6.51514,20.8378 6.3309,20.8378 6.3309,21.022 6.51514,21.022 "
           style="fill:#ffffff" /><polygon
           id="_344542400"
           class="fil1"
           points="7.25207,20.8378 7.06781,20.8378 7.06781,21.022 7.25207,21.022 "
           style="fill:#ffffff" /><polygon
           id="_344541896"
           class="fil1"
           points="7.4363,20.8378 7.25204,20.8378 7.25204,21.022 7.4363,21.022 "
           style="fill:#ffffff" /><polygon
           id="_344541680"
           class="fil1"
           points="3.56736,21.022 3.38313,21.022 3.38313,21.2063 3.56736,21.2063 "
           style="fill:#ffffff" /><polygon
           id="_344541944"
           class="fil1"
           points="3.93585,21.022 3.75159,21.022 3.75159,21.2063 3.93585,21.2063 "
           style="fill:#ffffff" /><polygon
           id="_344541824"
           class="fil1"
           points="4.12011,21.022 3.93585,21.022 3.93585,21.2063 4.12011,21.2063 "
           style="fill:#ffffff" /><polygon
           id="_344541800"
           class="fil1"
           points="4.30435,21.022 4.12009,21.022 4.12009,21.2063 4.30435,21.2063 "
           style="fill:#ffffff" /><polygon
           id="_344540792"
           class="fil1"
           points="4.67276,21.022 4.48852,21.022 4.48852,21.2063 4.67276,21.2063 "
           style="fill:#ffffff" /><polygon
           id="_344541248"
           class="fil1"
           points="5.04125,21.022 4.85702,21.022 4.85702,21.2063 5.04125,21.2063 "
           style="fill:#ffffff" /><polygon
           id="_344541128"
           class="fil1"
           points="5.22551,21.022 5.04125,21.022 5.04125,21.2063 5.22551,21.2063 "
           style="fill:#ffffff" /><polygon
           id="_344540720"
           class="fil1"
           points="5.40974,21.022 5.22548,21.022 5.22548,21.2063 5.40974,21.2063 "
           style="fill:#ffffff" /><polygon
           id="_344540648"
           class="fil1"
           points="5.59392,21.022 5.40966,21.022 5.40966,21.2063 5.59392,21.2063 "
           style="fill:#ffffff" /><polygon
           id="_344540432"
           class="fil1"
           points="6.3309,21.022 6.14664,21.022 6.14664,21.2063 6.3309,21.2063 "
           style="fill:#ffffff" /><polygon
           id="_344539856"
           class="fil1"
           points="6.51514,21.022 6.3309,21.022 6.3309,21.2063 6.51514,21.2063 "
           style="fill:#ffffff" /><polygon
           id="_344539760"
           class="fil1"
           points="6.69931,21.022 6.51508,21.022 6.51508,21.2063 6.69931,21.2063 "
           style="fill:#ffffff" /><polygon
           id="_344540120"
           class="fil1"
           points="6.88357,21.022 6.69931,21.022 6.69931,21.2063 6.88357,21.2063 "
           style="fill:#ffffff" /><polygon
           id="_344539976"
           class="fil1"
           points="7.06781,21.022 6.88354,21.022 6.88354,21.2063 7.06781,21.2063 "
           style="fill:#ffffff" /><polygon
           id="_344540024"
           class="fil1"
           points="7.25207,21.022 7.06781,21.022 7.06781,21.2063 7.25207,21.2063 "
           style="fill:#ffffff" /><polygon
           id="_344539568"
           class="fil1"
           points="7.4363,21.022 7.25204,21.022 7.25204,21.2063 7.4363,21.2063 "
           style="fill:#ffffff" /><polygon
           id="_344539160"
           class="fil1"
           points="7.62056,21.022 7.4363,21.022 7.4363,21.2063 7.62056,21.2063 "
           style="fill:#ffffff" /><polygon
           id="_344539304"
           class="fil1"
           points="7.98897,21.022 7.80471,21.022 7.80471,21.2063 7.98897,21.2063 "
           style="fill:#ffffff" /><polygon
           id="_344539232"
           class="fil1"
           points="3.56736,21.2063 3.38313,21.2063 3.38313,21.3905 3.56736,21.3905 "
           style="fill:#ffffff" /><polygon
           id="_344539688"
           class="fil1"
           points="3.93585,21.2063 3.75159,21.2063 3.75159,21.3905 3.93585,21.3905 "
           style="fill:#ffffff" /><polygon
           id="_344538704"
           class="fil1"
           points="4.12011,21.2063 3.93585,21.2063 3.93585,21.3905 4.12011,21.3905 "
           style="fill:#ffffff" /><polygon
           id="_344538848"
           class="fil1"
           points="4.30435,21.2063 4.12009,21.2063 4.12009,21.3905 4.30435,21.3905 "
           style="fill:#ffffff" /><polygon
           id="_344538824"
           class="fil1"
           points="4.67276,21.2063 4.48852,21.2063 4.48852,21.3905 4.67276,21.3905 "
           style="fill:#ffffff" /><polygon
           id="_344538560"
           class="fil1"
           points="5.04125,21.2063 4.85702,21.2063 4.85702,21.3905 5.04125,21.3905 "
           style="fill:#ffffff" /><polygon
           id="_344538488"
           class="fil1"
           points="5.22551,21.2063 5.04125,21.2063 5.04125,21.3905 5.22551,21.3905 "
           style="fill:#ffffff" /><polygon
           id="_344537768"
           class="fil1"
           points="5.40974,21.2063 5.22548,21.2063 5.22548,21.3905 5.40974,21.3905 "
           style="fill:#ffffff" /><polygon
           id="_344538176"
           class="fil1"
           points="5.77818,21.2063 5.59392,21.2063 5.59392,21.3905 5.77818,21.3905 "
           style="fill:#ffffff" /><polygon
           id="_344538008"
           class="fil1"
           points="5.96241,21.2063 5.77815,21.2063 5.77815,21.3905 5.96241,21.3905 "
           style="fill:#ffffff" /><polygon
           id="_344537984"
           class="fil1"
           points="6.14664,21.2063 5.96241,21.2063 5.96241,21.3905 6.14664,21.3905 "
           style="fill:#ffffff" /><polygon
           id="_344537960"
           class="fil1"
           points="6.51514,21.2063 6.3309,21.2063 6.3309,21.3905 6.51514,21.3905 "
           style="fill:#ffffff" /><polygon
           id="_344537504"
           class="fil1"
           points="6.69931,21.2063 6.51508,21.2063 6.51508,21.3905 6.69931,21.3905 "
           style="fill:#ffffff" /><polygon
           id="_344537216"
           class="fil1"
           points="6.88357,21.2063 6.69931,21.2063 6.69931,21.3905 6.88357,21.3905 "
           style="fill:#ffffff" /><polygon
           id="_344537168"
           class="fil1"
           points="7.06781,21.2063 6.88354,21.2063 6.88354,21.3905 7.06781,21.3905 "
           style="fill:#ffffff" /><polygon
           id="_344536736"
           class="fil1"
           points="7.25207,21.2063 7.06781,21.2063 7.06781,21.3905 7.25207,21.3905 "
           style="fill:#ffffff" /><polygon
           id="_344536928"
           class="fil1"
           points="7.62056,21.2063 7.4363,21.2063 7.4363,21.3905 7.62056,21.3905 "
           style="fill:#ffffff" /><polygon
           id="_344536688"
           class="fil1"
           points="7.80474,21.2063 7.62047,21.2063 7.62047,21.3905 7.80474,21.3905 "
           style="fill:#ffffff" /><polygon
           id="_344536184"
           class="fil1"
           points="7.98897,21.2063 7.80471,21.2063 7.80471,21.3905 7.98897,21.3905 "
           style="fill:#ffffff" /><polygon
           id="_344536016"
           class="fil1"
           points="3.56736,21.3905 3.38313,21.3905 3.38313,21.5747 3.56736,21.5747 "
           style="fill:#ffffff" /><polygon
           id="_344536592"
           class="fil1"
           points="3.93585,21.3905 3.75159,21.3905 3.75159,21.5747 3.93585,21.5747 "
           style="fill:#ffffff" /><polygon
           id="_344536400"
           class="fil1"
           points="4.12011,21.3905 3.93585,21.3905 3.93585,21.5747 4.12011,21.5747 "
           style="fill:#ffffff" /><polygon
           id="_344536448"
           class="fil1"
           points="4.30435,21.3905 4.12009,21.3905 4.12009,21.5747 4.30435,21.5747 "
           style="fill:#ffffff" /><polygon
           id="_344535440"
           class="fil1"
           points="4.67276,21.3905 4.48852,21.3905 4.48852,21.5747 4.67276,21.5747 "
           style="fill:#ffffff" /><polygon
           id="_344535896"
           class="fil1"
           points="5.04125,21.3905 4.85702,21.3905 4.85702,21.5747 5.04125,21.5747 "
           style="fill:#ffffff" /><polygon
           id="_344535872"
           class="fil1"
           points="5.22551,21.3905 5.04125,21.3905 5.04125,21.5747 5.22551,21.5747 "
           style="fill:#ffffff" /><polygon
           id="_344535344"
           class="fil1"
           points="5.40974,21.3905 5.22548,21.3905 5.22548,21.5747 5.40974,21.5747 "
           style="fill:#ffffff" /><polygon
           id="_344535296"
           class="fil1"
           points="5.96241,21.3905 5.77815,21.3905 5.77815,21.5747 5.96241,21.5747 "
           style="fill:#ffffff" /><polygon
           id="_344535512"
           class="fil1"
           points="6.14664,21.3905 5.96241,21.3905 5.96241,21.5747 6.14664,21.5747 "
           style="fill:#ffffff" /><polygon
           id="_344535056"
           class="fil1"
           points="6.51514,21.3905 6.3309,21.3905 6.3309,21.5747 6.51514,21.5747 "
           style="fill:#ffffff" /><polygon
           id="_344535032"
           class="fil1"
           points="6.69931,21.3905 6.51508,21.3905 6.51508,21.5747 6.69931,21.5747 "
           style="fill:#ffffff" /><polygon
           id="_344534816"
           class="fil1"
           points="7.06781,21.3905 6.88354,21.3905 6.88354,21.5747 7.06781,21.5747 "
           style="fill:#ffffff" /><polygon
           id="_344534648"
           class="fil1"
           points="7.62056,21.3905 7.4363,21.3905 7.4363,21.5747 7.62056,21.5747 "
           style="fill:#ffffff" /><polygon
           id="_344534864"
           class="fil1"
           points="7.98897,21.3905 7.80471,21.3905 7.80471,21.5747 7.98897,21.5747 "
           style="fill:#ffffff" /><polygon
           id="_42447264"
           class="fil1"
           points="3.56736,21.5747 3.38313,21.5747 3.38313,21.7589 3.56736,21.7589 "
           style="fill:#ffffff" /><polygon
           id="_342900992"
           class="fil1"
           points="4.67276,21.5747 4.48852,21.5747 4.48852,21.7589 4.67276,21.7589 "
           style="fill:#ffffff" /><polygon
           id="_43783448"
           class="fil1"
           points="5.04125,21.5747 4.85702,21.5747 4.85702,21.7589 5.04125,21.7589 "
           style="fill:#ffffff" /><polygon
           id="_42447840"
           class="fil1"
           points="5.22551,21.5747 5.04125,21.5747 5.04125,21.7589 5.22551,21.7589 "
           style="fill:#ffffff" /><polygon
           id="_42447816"
           class="fil1"
           points="5.40974,21.5747 5.22548,21.5747 5.22548,21.7589 5.40974,21.7589 "
           style="fill:#ffffff" /><polygon
           id="_42625640"
           class="fil1"
           points="5.77818,21.5747 5.59392,21.5747 5.59392,21.7589 5.77818,21.7589 "
           style="fill:#ffffff" /><polygon
           id="_42625088"
           class="fil1"
           points="5.96241,21.5747 5.77815,21.5747 5.77815,21.7589 5.96241,21.7589 "
           style="fill:#ffffff" /><polygon
           id="_42625160"
           class="fil1"
           points="6.3309,21.5747 6.14664,21.5747 6.14664,21.7589 6.3309,21.7589 "
           style="fill:#ffffff" /><polygon
           id="_43782944"
           class="fil1"
           points="6.51514,21.5747 6.3309,21.5747 6.3309,21.7589 6.51514,21.7589 "
           style="fill:#ffffff" /><polygon
           id="_43782680"
           class="fil1"
           points="6.69931,21.5747 6.51508,21.5747 6.51508,21.7589 6.69931,21.7589 "
           style="fill:#ffffff" /><polygon
           id="_43783784"
           class="fil1"
           points="6.88357,21.5747 6.69931,21.5747 6.69931,21.7589 6.88357,21.7589 "
           style="fill:#ffffff" /><polygon
           id="_342901112"
           class="fil1"
           points="7.06781,21.5747 6.88354,21.5747 6.88354,21.7589 7.06781,21.7589 "
           style="fill:#ffffff" /><polygon
           id="_342895256"
           class="fil1"
           points="7.25207,21.5747 7.06781,21.5747 7.06781,21.7589 7.25207,21.7589 "
           style="fill:#ffffff" /><polygon
           id="_342889232"
           class="fil1"
           points="7.4363,21.5747 7.25204,21.5747 7.25204,21.7589 7.4363,21.7589 "
           style="fill:#ffffff" /><polygon
           id="_342888752"
           class="fil1"
           points="7.98897,21.5747 7.80471,21.5747 7.80471,21.7589 7.98897,21.7589 "
           style="fill:#ffffff" /><polygon
           id="_342888704"
           class="fil1"
           points="3.56736,21.7589 3.38313,21.7589 3.38313,21.9432 3.56736,21.9432 "
           style="fill:#ffffff" /><polygon
           id="_342889184"
           class="fil1"
           points="3.75162,21.7589 3.56736,21.7589 3.56736,21.9432 3.75162,21.9432 "
           style="fill:#ffffff" /><polygon
           id="_342889088"
           class="fil1"
           points="3.93585,21.7589 3.75159,21.7589 3.75159,21.9432 3.93585,21.9432 "
           style="fill:#ffffff" /><polygon
           id="_342904736"
           class="fil1"
           points="4.12011,21.7589 3.93585,21.7589 3.93585,21.9432 4.12011,21.9432 "
           style="fill:#ffffff" /><polygon
           id="_342904280"
           class="fil1"
           points="4.30435,21.7589 4.12009,21.7589 4.12009,21.9432 4.30435,21.9432 "
           style="fill:#ffffff" /><polygon
           id="_342904088"
           class="fil1"
           points="4.48852,21.7589 4.30426,21.7589 4.30426,21.9432 4.48852,21.9432 "
           style="fill:#ffffff" /><polygon
           id="_342904304"
           class="fil1"
           points="4.67276,21.7589 4.48852,21.7589 4.48852,21.9432 4.67276,21.9432 "
           style="fill:#ffffff" /><polygon
           id="_342904496"
           class="fil1"
           points="5.04125,21.7589 4.85702,21.7589 4.85702,21.9432 5.04125,21.9432 "
           style="fill:#ffffff" /><polygon
           id="_342904016"
           class="fil1"
           points="5.22551,21.7589 5.04125,21.7589 5.04125,21.9432 5.22551,21.9432 "
           style="fill:#ffffff" /><polygon
           id="_342903416"
           class="fil1"
           points="5.40974,21.7589 5.22548,21.7589 5.22548,21.9432 5.40974,21.9432 "
           style="fill:#ffffff" /><polygon
           id="_342903320"
           class="fil1"
           points="5.77818,21.7589 5.59392,21.7589 5.59392,21.9432 5.77818,21.9432 "
           style="fill:#ffffff" /><polygon
           id="_342903680"
           class="fil1"
           points="6.14664,21.7589 5.96241,21.7589 5.96241,21.9432 6.14664,21.9432 "
           style="fill:#ffffff" /><polygon
           id="_342903824"
           class="fil1"
           points="6.88357,21.7589 6.69931,21.7589 6.69931,21.9432 6.88357,21.9432 "
           style="fill:#ffffff" /><polygon
           id="_342903872"
           class="fil1"
           points="7.06781,21.7589 6.88354,21.7589 6.88354,21.9432 7.06781,21.9432 "
           style="fill:#ffffff" /><polygon
           id="_342903056"
           class="fil1"
           points="7.25207,21.7589 7.06781,21.7589 7.06781,21.9432 7.25207,21.9432 "
           style="fill:#ffffff" /><polygon
           id="_342902624"
           class="fil1"
           points="7.4363,21.7589 7.25204,21.7589 7.25204,21.9432 7.4363,21.9432 "
           style="fill:#ffffff" /><polygon
           id="_342903080"
           class="fil1"
           points="7.62056,21.7589 7.4363,21.7589 7.4363,21.9432 7.62056,21.9432 "
           style="fill:#ffffff" /><polygon
           id="_342902840"
           class="fil1"
           points="7.80474,21.7589 7.62047,21.7589 7.62047,21.9432 7.80474,21.9432 "
           style="fill:#ffffff" /><polygon
           id="_342902936"
           class="fil1"
           points="7.98897,21.7589 7.80471,21.7589 7.80471,21.9432 7.98897,21.9432 "
           style="fill:#ffffff" /></g><path
         id="_342902504"
         class="fil0"
         d="m 12.9631,19.3451 c 0.0122,-0.0041 0.03459,-0.01728 0.06714,-0.03763 0.0336,-0.01935 0.07126,-0.04986 0.113996,-0.08956 0.04172,-0.0397 0.08343,-0.09158 0.123105,-0.155684 0.04072,-0.06309 0.0743,-0.140416 0.100743,-0.232022 0.02645,-0.09155 0.0397,-0.198422 0.04072,-0.321527 0,-0.144503 -0.0275,-0.282904 -0.08244,-0.415176 -0.05494,-0.131278 -0.140416,-0.249304 -0.255405,-0.353112 -0.116011,-0.102758 -0.262528,-0.185169 -0.442646,-0.245218 -0.180118,-0.06005 -0.393807,-0.09056 -0.642089,-0.09158 l -1.70951,0 c -0.06919,0 -0.116011,0.01626 -0.141466,0.0468 -0.02543,0.03153 -0.03661,0.07429 -0.03561,0.130228 l 0,3.66938 c -9.93e-4,0.05494 0.01019,0.0987 0.03561,0.129235 0.02545,0.03153 0.07228,0.0468 0.141466,0.04782 l 1.79499,0 c 0.212668,0 0.408053,-0.02441 0.585105,-0.07427 0.177053,-0.04884 0.330722,-0.123134 0.459928,-0.220812 0.129235,-0.09873 0.229978,-0.220841 0.300186,-0.367358 0.07126,-0.145496 0.106873,-0.315454 0.107866,-0.509789 -9.93e-4,-0.131278 -0.01933,-0.247289 -0.05392,-0.345989 -0.03459,-0.09972 -0.07733,-0.184176 -0.129235,-0.254384 -0.0529,-0.06919 -0.105823,-0.127192 -0.15977,-0.170951 -0.05392,-0.04478 -0.100743,-0.07835 -0.141438,-0.09972 -0.04069,-0.02239 -0.06612,-0.03561 -0.07733,-0.03868 l 0,0 z m -0.879191,1.21499 -1.02571,0 0,-2.28954 0.92803,0 c 0.105823,-0.001 0.1974,0.0081 0.272716,0.02747 0.07529,0.0183 0.133293,0.05293 0.172966,0.102786 0.04072,0.04884 0.06107,0.119047 0.06107,0.208581 10e-4,0.118054 -0.03871,0.209234 -0.120069,0.270673 -0.08088,0.0611 -1.45363,0.03048 -1.62966,0.03048 l 0,0 c -0.416311,0 -0.45255,0.901326 0.06104,0.900985 0.09822,-8.5e-5 1.42942,-0.01016 1.50451,0.01183 0.076,0.02225 0.135336,0.06107 0.179096,0.116011 0.04373,0.05392 0.06513,0.129235 0.06615,0.223849 -10e-4,0.136358 -0.04174,0.237101 -0.123134,0.301208 -0.0804,0.06411 -0.196407,0.09666 -0.347011,0.09566 z m 5.12247,0.0122 -1.94764,0 0,-0.805918 1.63624,0 c 0.06921,-0.001 0.116011,-0.01629 0.141466,-0.04782 0.02543,-0.03054 0.03664,-0.07429 0.03561,-0.129235 l 0,-0.476218 c 0.001,-0.05596 -0.01019,-0.09873 -0.03561,-0.130257 -0.02546,-0.03054 -0.07225,-0.0468 -0.141466,-0.0468 l -1.63624,0 0,-0.665501 1.84386,0 c 0.06919,-0.001 0.115982,-0.01629 0.141438,-0.04782 0.02543,-0.03054 0.03661,-0.0743 0.03559,-0.129235 l 0,-0.506753 c 10e-4,-0.05599 -0.01016,-0.0987 -0.03559,-0.130257 -0.02545,-0.03054 -0.07225,-0.0468 -0.141438,-0.0468 l -2.63144,0 c -0.06921,0 -0.116011,0.01626 -0.141466,0.0468 -0.02543,0.03156 -0.03661,0.07427 -0.03561,0.130257 l 0,3.66325 c -9.93e-4,0.05494 0.01019,0.0987 0.03561,0.129235 0.02545,0.03153 0.07225,0.0468 0.141466,0.04782 l 2.73522,0 c 0.06919,-0.001 0.116011,-0.01629 0.141438,-0.04782 0.02546,-0.03054 0.03664,-0.07429 0.03561,-0.129235 l 0,-0.500651 c 10e-4,-0.05494 -0.01016,-0.0987 -0.03561,-0.129207 -0.02543,-0.03156 -0.07225,-0.04682 -0.141438,-0.04785 z m 3.8281,0 -1.94764,0 0,-0.805918 1.63624,0 c 0.06921,-0.001 0.116011,-0.01629 0.141466,-0.04782 0.02543,-0.03054 0.03664,-0.07429 0.03561,-0.129235 l 0,-0.476218 c 10e-4,-0.05596 -0.01019,-0.09873 -0.03561,-0.130257 -0.02546,-0.03054 -0.07225,-0.0468 -0.141466,-0.0468 l -1.63624,0 0,-0.665501 1.84386,0 c 0.06919,-0.001 0.115982,-0.01629 0.141438,-0.04782 0.02543,-0.03054 0.03661,-0.0743 0.03559,-0.129235 l 0,-0.506753 c 10e-4,-0.05599 -0.01016,-0.0987 -0.03559,-0.130257 -0.02546,-0.03054 -0.07225,-0.0468 -0.141438,-0.0468 l -2.63144,0 c -0.06921,0 -0.116011,0.01626 -0.141466,0.0468 -0.02543,0.03156 -0.03661,0.07427 -0.03561,0.130257 l 0,3.66325 c -9.93e-4,0.05494 0.01019,0.0987 0.03561,0.129235 0.02545,0.03153 0.07225,0.0468 0.141466,0.04782 l 2.73522,0 c 0.06919,-0.001 0.116011,-0.01629 0.141438,-0.04782 0.02546,-0.03054 0.03664,-0.07429 0.03561,-0.129235 l 0,-0.500651 c 0.001,-0.05494 -0.01016,-0.0987 -0.03561,-0.129207 -0.02543,-0.03156 -0.07225,-0.04682 -0.141438,-0.04785 z m 3.63272,-3.1626 -2.8329,0 c -0.06919,0 -0.116011,0.01626 -0.141466,0.0468 -0.02543,0.03156 -0.03664,0.07427 -0.03561,0.130257 l 0,0.506753 c -10e-4,0.05494 0.01019,0.0987 0.03561,0.129235 0.02546,0.03153 0.07228,0.04679 0.141466,0.04782 l 0.940204,0 0,2.97945 c 0.001,0.06921 0.01629,0.116011 0.04785,0.141438 0.03054,0.02546 0.07429,0.03664 0.129235,0.03561 l 0.604431,0 c 0.05596,10e-4 0.0987,-0.01016 0.130257,-0.03561 0.03054,-0.02543 0.0468,-0.07222 0.0468,-0.141438 l 0,-2.97945 0.934131,0 c 0.06919,-0.001 0.116011,-0.01629 0.141438,-0.04782 0.02545,-0.03054 0.03666,-0.07429 0.03564,-0.129235 l 0,-0.506753 c 0.001,-0.05599 -0.01019,-0.0987 -0.03564,-0.130257 -0.02543,-0.03054 -0.07225,-0.0468 -0.141438,-0.0468 z m 2.68028,1.68508 c -0.04172,-0.01629 -0.0987,-0.03357 -0.168908,-0.0529 -0.07123,-0.01933 -0.149582,-0.04072 -0.23608,-0.06411 -0.08548,-0.02443 -0.170951,-0.0519 -0.257449,-0.08244 -0.0865,-0.03054 -0.16485,-0.06513 -0.237073,-0.104801 -0.07225,-0.03868 -0.130257,-0.08343 -0.175038,-0.133293 -0.04376,-0.04884 -0.06615,-0.104801 -0.06717,-0.166893 0.001,-0.06816 0.01935,-0.125177 0.05599,-0.170951 0.03561,-0.04577 0.08139,-0.08241 0.137351,-0.108888 0.05596,-0.02747 0.113996,-0.0458 0.175038,-0.05798 0.06104,-0.01121 0.117004,-0.01629 0.168908,-0.01629 0.06206,0 0.125149,0.0061 0.190277,0.0183 0.06513,0.0122 0.126199,0.03054 0.183182,0.05497 0.058,0.02441 0.105823,0.05494 0.145496,0.09158 0.03561,0.03561 0.06311,0.06817 0.08244,0.09564 0.01933,0.02849 0.03459,0.05801 0.04577,0.08752 0.0092,0.02747 0.01935,0.05293 0.03054,0.07835 0.01118,0.02443 0.02645,0.04478 0.0468,0.06107 0.02035,0.01626 0.04986,0.02441 0.08752,0.02543 l 0.59833,0 c 0.04683,0 0.08241,-0.0031 0.107866,-0.0122 0.02645,-0.0081 0.04478,-0.02443 0.05494,-0.04986 0.01019,-0.02443 0.01425,-0.06107 0.01425,-0.108888 -9.94e-4,-0.160792 -0.03255,-0.304245 -0.09464,-0.430443 -0.06104,-0.125149 -0.146518,-0.234036 -0.253362,-0.326635 -0.107866,-0.09158 -0.231,-0.166865 -0.369373,-0.226914 -0.138373,-0.06005 -0.284919,-0.10378 -0.439581,-0.133293 -0.154691,-0.02852 -0.310374,-0.04277 -0.46708,-0.04277 -0.153641,0.0061 -0.30223,0.02648 -0.447726,0.06209 -0.144503,0.03459 -0.278818,0.08548 -0.403995,0.150576 -0.125149,0.06414 -0.235058,0.144531 -0.329672,0.240166 -0.09464,0.09564 -0.167915,0.206566 -0.220812,0.333758 -0.05395,0.127192 -0.0804,0.26968 -0.08142,0.4284 10e-4,0.19232 0.03459,0.356149 0.0987,0.48947 0.06411,0.133293 0.151626,0.245218 0.262557,0.335773 0.110903,0.08956 0.237073,0.16485 0.377518,0.226942 0.141438,0.06104 0.289999,0.114961 0.445682,0.162778 0.131278,0.0397 0.259492,0.0733 0.384641,0.101765 0.12617,0.02747 0.239145,0.05701 0.340881,0.08854 0.101765,0.03054 0.183182,0.07123 0.244224,0.121091 0.06002,0.04986 0.09158,0.117032 0.0926,0.201486 -0.001,0.112946 -0.02849,0.199443 -0.08142,0.259492 -0.05392,0.06002 -0.125149,0.101736 -0.214682,0.124127 -0.09058,0.02239 -0.191299,0.03255 -0.30223,0.03153 -0.07631,0 -0.152647,-0.0061 -0.227935,-0.01932 -0.07631,-0.01323 -0.146518,-0.03561 -0.211646,-0.06513 -0.06411,-0.02951 -0.117032,-0.06817 -0.158749,-0.117004 -0.03967,-0.0458 -0.06819,-0.08854 -0.08548,-0.129235 -0.01833,-0.04172 -0.02849,-0.08142 -0.03054,-0.121091 -0.0041,-0.04986 -0.01425,-0.08752 -0.03153,-0.111953 -0.01629,-0.0244 -0.04072,-0.04067 -0.07126,-0.04884 -0.03153,-0.0071 -0.07018,-0.01118 -0.117004,-0.01016 l -0.592228,0 c -0.06919,-0.002 -0.115982,0.0091 -0.141438,0.03258 -0.02543,0.02338 -0.03664,0.07021 -0.03561,0.138373 0.001,0.170951 0.03357,0.325614 0.09768,0.462993 0.06414,0.13738 0.150604,0.258442 0.260514,0.36225 0.109881,0.103808 0.23608,0.190305 0.376496,0.259492 0.140416,0.07021 0.288977,0.122084 0.443668,0.156705 0.155684,0.03561 0.310346,0.05293 0.464015,0.05293 0.23608,0 0.452805,-0.02648 0.650234,-0.07838 0.1974,-0.0529 0.369373,-0.13125 0.514869,-0.238095 0.144503,-0.105851 0.257449,-0.239145 0.337845,-0.399908 0.07938,-0.160792 0.120069,-0.349026 0.121091,-0.56578 -10e-4,-0.164822 -0.0244,-0.307309 -0.07123,-0.424342 -0.0458,-0.118026 -0.106845,-0.217747 -0.184176,-0.298143 -0.07736,-0.07935 -0.163828,-0.146518 -0.25847,-0.198422 -0.09566,-0.0529 -0.19232,-0.09564 -0.29102,-0.130228 -0.0987,-0.03462 -0.192349,-0.06411 -0.281882,-0.09058 l 0,0 z m 4.95762,-0.396843 c -10e-4,-0.193342 -0.03561,-0.364293 -0.100743,-0.513876 -0.06615,-0.149582 -0.155684,-0.279811 -0.267608,-0.388727 -0.112946,-0.108859 -0.240166,-0.198422 -0.381604,-0.269651 -0.142459,-0.07018 -0.289005,-0.123105 -0.442646,-0.156705 -0.152619,-0.03459 -0.303223,-0.05088 -0.449769,-0.05088 -0.146518,0 -0.2961,0.01629 -0.448747,0.05088 -0.151626,0.0336 -0.298143,0.08653 -0.438559,0.156705 -0.140445,0.07123 -0.266615,0.160792 -0.378539,0.269651 -0.110931,0.108916 -0.199443,0.239145 -0.264572,0.388727 -0.06513,0.149582 -0.0987,0.320534 -0.09972,0.513876 l 0,1.44088 c 10e-4,0.19232 0.03459,0.364293 0.09972,0.513876 0.06513,0.149582 0.153641,0.279839 0.264572,0.388699 0.111924,0.108888 0.238095,0.19845 0.378539,0.269651 0.140416,0.07021 0.286934,0.122112 0.438559,0.156734 0.152647,0.03357 0.30223,0.05088 0.448747,0.05088 0.146546,0 0.29715,-0.01731 0.449769,-0.05088 0.153641,-0.03462 0.300186,-0.08653 0.442646,-0.156734 0.141438,-0.0712 0.268658,-0.160764 0.381604,-0.269651 0.111924,-0.108859 0.201458,-0.239116 0.267608,-0.388699 0.06513,-0.149582 0.09972,-0.321555 0.100743,-0.513876 l 0,-1.44088 z m -0.958565,1.35541 c -10e-4,0.130257 -0.03053,0.242181 -0.08749,0.333758 -0.05803,0.09158 -0.13738,0.161785 -0.240166,0.209603 -0.101765,0.04887 -0.220812,0.0733 -0.356149,0.0733 -0.133292,0 -0.250326,-0.02443 -0.352062,-0.0733 -0.101765,-0.04782 -0.181139,-0.118026 -0.238123,-0.209603 -0.05698,-0.09158 -0.0865,-0.203501 -0.08752,-0.333758 l 0,-1.26993 c 0.001,-0.130257 0.03054,-0.242181 0.08752,-0.333758 0.05698,-0.09158 0.136358,-0.161785 0.238123,-0.209631 0.101736,-0.04884 0.218769,-0.07327 0.352062,-0.07327 0.135336,0 0.254385,0.02443 0.356149,0.07327 0.102786,0.04785 0.182132,0.118054 0.240166,0.209631 0.05696,0.09158 0.08647,0.203501 0.08749,0.333758 l 0,1.26993 z m 4.54244,-2.64364 -2.62534,0 c -0.06919,0 -0.116011,0.01626 -0.141438,0.0468 -0.02546,0.03156 -0.03664,0.07427 -0.03561,0.130257 l 0,3.66325 c -10e-4,0.05494 0.01016,0.0987 0.03561,0.129235 0.02543,0.03153 0.07225,0.04679 0.141438,0.04782 l 0.604459,0 c 0.0468,0.001 0.08241,-0.003 0.107838,-0.0122 0.02648,-0.0092 0.04376,-0.02645 0.05494,-0.05292 0.01019,-0.02645 0.01425,-0.06615 0.01425,-0.118026 l 0,-1.42868 1.58743,0 c 0.06921,-10e-4 0.116011,-0.01629 0.141438,-0.04782 0.02546,-0.03051 0.03664,-0.07429 0.03561,-0.129235 l 0,-0.482319 c 0.001,-0.05596 -0.01016,-0.0987 -0.03561,-0.130257 -0.02543,-0.03054 -0.07222,-0.04682 -0.141438,-0.04682 l -1.58743,0 0,-0.714312 1.84386,0 c 0.06919,-10e-4 0.116011,-0.01629 0.141438,-0.04785 0.02546,-0.03051 0.03664,-0.07427 0.03561,-0.129207 l 0,-0.500651 c 10e-4,-0.05599 -0.01016,-0.0987 -0.03561,-0.130257 -0.02543,-0.03054 -0.07225,-0.0468 -0.141438,-0.0468 z m 3.58998,0 -2.8329,0 c -0.06919,0 -0.116011,0.01626 -0.141438,0.0468 -0.02546,0.03156 -0.03664,0.07427 -0.03561,0.130257 l 0,0.506753 c -10e-4,0.05494 0.01016,0.0987 0.03561,0.129235 0.02543,0.03153 0.07225,0.04679 0.141438,0.04782 l 0.940232,0 0,2.97945 c 10e-4,0.06921 0.01629,0.116011 0.04785,0.141438 0.03051,0.02546 0.07427,0.03664 0.129207,0.03561 l 0.604459,0 c 0.05596,10e-4 0.0987,-0.01016 0.130228,-0.03561 0.03054,-0.02543 0.0468,-0.07222 0.0468,-0.141438 l 0,-2.97945 0.934131,0 c 0.06921,-0.001 0.116011,-0.01629 0.141466,-0.04782 0.02543,-0.03054 0.03664,-0.07429 0.03561,-0.129235 l 0,-0.506753 c 0.001,-0.05599 -0.01019,-0.0987 -0.03561,-0.130257 -0.02546,-0.03054 -0.07225,-0.0468 -0.141466,-0.0468 z"
         inkscape:connector-curvature="0"
         style="fill:#37b398;fill-rule:nonzero" /></g></g></svg>